HIERARCHY
ROOT Hips
{
	OFFSET 0.00 0.00 0.00
	CHANNELS 6 Xposition Yposition Zposition Xrotation Yrotation Zrotation
	JOINT Spine
	{
		OFFSET 0.00000 1.72418 2.58627
		CHANNELS 3 Xrotation Yrotation Zrotation
		JOINT Spine1
		{
			OFFSET 0.00000 0.59880 3.39597
			CHANNELS 3 Xrotation Yrotation Zrotation
			JOINT Spine2
			{
				OFFSET 0.00000 0.30055 3.43524
				CHANNELS 3 Xrotation Yrotation Zrotation
				JOINT Spine3
				{
					OFFSET 0.00000 0.00000 3.44836
					CHANNELS 3 Xrotation Yrotation Zrotation
					JOINT Neck
					{
						OFFSET 0.00000 -1.29313 9.05195
						CHANNELS 3 Xrotation Yrotation Zrotation
						JOINT Head
						{
							OFFSET 0.00000 -0.82335 4.66946
							CHANNELS 3 Xrotation Yrotation Zrotation
							End Site
							{
								OFFSET 0.00000 0.00001 5.58203
							}
						}
					}
					JOINT RightShoulder
					{
						OFFSET -1.18828 -1.98046 6.41673
						CHANNELS 3 Xrotation Yrotation Zrotation
						JOINT RightArm
						{
							OFFSET -5.90180 0.00000 0.00000
							CHANNELS 3 Xrotation Yrotation Zrotation
							JOINT RightForeArm
							{
								OFFSET -11.45951 0.00000 0.00000
								CHANNELS 3 Xrotation Yrotation Zrotation
								JOINT RightHand
								{
									OFFSET -10.63451 0.00000 0.00000
									CHANNELS 3 Xrotation Yrotation Zrotation
									JOINT RightHandEnd
									{
										OFFSET -2.86944 0.00000 0.00000
										CHANNELS 3 Xrotation Yrotation Zrotation
										End Site
										{
											OFFSET -2.86944 0.00000 0.00000
										}
									}
									JOINT RightHandThumb1
									{
										OFFSET -1.14778 -1.91296 -0.76518
										CHANNELS 3 Yrotation Xrotation Zrotation
										End Site
										{
											OFFSET -2.77167 -0.74267 0.00000
										}
									}
								}
							}
						}
					}
					JOINT LeftShoulder
					{
						OFFSET 1.18828 -1.98046 6.41673
						CHANNELS 3 Xrotation Yrotation Zrotation
						JOINT LeftArm
						{
							OFFSET 5.90180 0.00000 0.00000
							CHANNELS 3 Xrotation Yrotation Zrotation
							JOINT LeftForeArm
							{
								OFFSET 11.45951 0.00000 0.00000
								CHANNELS 3 Xrotation Yrotation Zrotation
								JOINT LeftHand
								{
									OFFSET 10.63451 0.00000 0.00000
									CHANNELS 3 Xrotation Yrotation Zrotation
									JOINT LeftHandEnd
									{
										OFFSET 2.86944 0.00000 0.00000
										CHANNELS 3 Xrotation Yrotation Zrotation
										End Site
										{
											OFFSET 2.86944 0.00000 0.00000
										}
									}
									JOINT LeftHandThumb1
									{
										OFFSET 1.14778 -1.91296 -0.76518
										CHANNELS 3 Yrotation Xrotation Zrotation
										End Site
										{
											OFFSET 2.77167 -0.74267 0.00000
										}
									}
								}
							}
						}
					}
				}
			}
		}
	}
	JOINT RightUpLeg
	{
		OFFSET -3.52524 0.00000 -1.02984
		CHANNELS 3 Xrotation Yrotation Zrotation
		JOINT RightLeg
		{
			OFFSET 0.00001 0.00000 -17.80965
			CHANNELS 3 Xrotation Yrotation Zrotation
			JOINT RightFoot
			{
				OFFSET 0.00001 0.00000 -17.00908
				CHANNELS 3 Xrotation Yrotation Zrotation
				JOINT RightToeBase
				{
					OFFSET 0.00000 -5.55853 -2.02314
					CHANNELS 3 Xrotation Yrotation Zrotation
					End Site
					{
						OFFSET 0.00000 -2.85188 -0.00000
					}
				}
			}
		}
	}
	JOINT LeftUpLeg
	{
		OFFSET 3.52524 0.00000 -1.02984
		CHANNELS 3 Xrotation Yrotation Zrotation
		JOINT LeftLeg
		{
			OFFSET 0.00001 0.00000 -17.80965
			CHANNELS 3 Xrotation Yrotation Zrotation
			JOINT LeftFoot
			{
				OFFSET 0.00001 0.00000 -17.00908
				CHANNELS 3 Xrotation Yrotation Zrotation
				JOINT LeftToeBase
				{
					OFFSET 0.00000 -5.55853 -2.02314
					CHANNELS 3 Xrotation Yrotation Zrotation
					End Site
					{
						OFFSET 0.00000 -2.85188 -0.00000
					}
				}
			}
		}
	}
}
MOTION
Frames: 7
Frame Time: 0.008342
 5.1094 -104.4083 36.2164 -1.2959 1.0115 -174.8038 0.9540 -0.6954 -0.3526 0.5202 0.0512 -0.0451 1.0189 0.3843 0.2760 -0.0374 0.6858 -0.0543 -1.6875 -0.2959 -2.1623 -2.3121 0.5099 -2.9011 4.7663 6.0046 -0.6301 -8.6363 -4.7023 -1.8915 0.0000 0.0000 12.4307 -7.6287 23.9230 -6.8446 0.0000 0.0000 0.0000 0.0000 -0.0000 0.0000 10.2644 -4.7868 -1.7107 -20.5679 -2.0311 6.7029 -0.0000 -0.0000 -21.9189 -7.6265 -21.3904 -0.9045 -0.0000 -0.0000 0.0000 0.0000 0.0000 0.0000 -5.6730 -1.3351 -29.9693 16.7937 0.0000 0.0000 -17.0785 3.2625 4.3938 1.2280 0.0000 0.0000 -8.2036 -4.1716 7.4644 19.7028 0.0000 0.0000 -13.0635 2.5230 3.3316 -9.0435 0.0000 -0.0000
 5.1016 -104.4049 36.2158 -1.2946 0.9873 -174.8589 0.9272 -0.6686 -0.3529 0.5142 0.0565 -0.0440 0.9991 0.3628 0.2915 -0.0410 0.6663 -0.0444 -1.6658 -0.2867 -2.1322 -2.2958 0.4960 -2.8956 4.6861 6.0292 -0.5901 -8.5011 -4.6203 -1.7897 0.0000 0.0000 12.2929 -7.6239 23.8136 -6.9114 -0.0000 0.0000 -0.0000 -0.0000 -0.0000 0.0000 10.1914 -4.7865 -1.6533 -20.3758 -2.0934 6.6718 -0.0000 -0.0000 -21.7673 -7.6776 -21.3208 -0.9064 -0.0000 -0.0000 0.0000 -0.0000 0.0000 0.0000 -5.6710 -1.3549 -29.9052 16.7913 0.0000 0.0000 -17.0749 3.2269 4.3631 1.1797 0.0000 0.0000 -8.1535 -4.2199 7.6339 19.6728 0.0000 0.0000 -13.0531 2.5999 3.0989 -8.5354 0.0000 -0.0000
 5.0906 -104.3990 36.2166 -1.2673 0.9694 -174.9166 0.9184 -0.6249 -0.3564 0.5050 0.0635 -0.0418 0.9787 0.3403 0.3037 -0.0449 0.6423 -0.0336 -1.6462 -0.2822 -2.0996 -2.2751 0.4791 -2.8854 4.5886 6.0491 -0.5453 -8.3416 -4.5129 -1.6587 0.0000 0.0000 12.1210 -7.6248 23.6741 -6.9922 -0.0000 0.0000 -0.0000 0.0000 -0.0000 -0.0000 10.1110 -4.7901 -1.5842 -20.1469 -2.1722 6.6416 -0.0000 -0.0000 -21.5773 -7.7412 -21.2385 -0.9096 -0.0000 -0.0000 0.0000 0.0000 0.0000 0.0000 -5.6326 -1.3677 -29.8439 16.7779 0.0000 0.0000 -17.0670 3.1657 4.3248 1.0887 0.0000 0.0000 -8.0476 -4.2657 7.8429 19.5963 0.0000 0.0000 -13.0158 2.7220 2.8363 -7.8037 0.0000 -0.0000
 5.0758 -104.3918 36.2190 -1.2408 0.9681 -174.9767 0.9003 -0.5540 -0.3592 0.4916 0.0717 -0.0393 0.9626 0.3189 0.3101 -0.0486 0.6144 -0.0221 -1.6323 -0.2831 -2.0650 -2.2536 0.4592 -2.8697 4.4761 6.0565 -0.4983 -8.1596 -4.3757 -1.4975 0.0000 0.0000 11.9184 -7.6322 23.5070 -7.0853 0.0000 -0.0000 -0.0000 -0.0000 -0.0000 -0.0000 10.0261 -4.7933 -1.5044 -19.8902 -2.2681 6.6147 -0.0000 -0.0000 -21.3549 -7.8105 -21.1482 -0.9118 0.0000 -0.0000 -0.0000 -0.0000 -0.0000 0.0000 -5.5927 -1.3571 -29.7761 16.7675 0.0000 0.0000 -17.0606 3.0785 4.2696 0.9469 0.0000 0.0000 -7.9116 -4.2922 8.0883 19.4645 0.0000 0.0000 -12.9421 2.8860 2.5604 -6.8588 0.0000 -0.0000
 5.0573 -104.3826 36.2234 -1.2035 0.9783 -175.0330 0.8832 -0.4634 -0.3643 0.4791 0.0825 -0.0372 0.9458 0.2950 0.3118 -0.0500 0.5862 -0.0130 -1.6247 -0.2908 -2.0304 -2.2317 0.4377 -2.8490 4.3541 6.0519 -0.4530 -7.9577 -4.2158 -1.3077 0.0000 0.0000 11.6899 -7.6452 23.3179 -7.1840 0.0000 -0.0000 0.0000 0.0000 0.0000 0.0000 9.9435 -4.7960 -1.4149 -19.6142 -2.3770 6.5925 -0.0000 -0.0000 -21.1057 -7.8840 -21.0562 -0.9127 0.0000 0.0000 0.0000 -0.0000 -0.0000 -0.0000 -5.5318 -1.3318 -29.7130 16.7462 0.0000 0.0000 -17.0493 2.9611 4.2003 0.7468 0.0000 0.0000 -7.7330 -4.3043 8.3667 19.2742 0.0000 0.0000 -12.8326 3.0853 2.2763 -5.7303 0.0000 -0.0000
 5.0348 -104.3715 36.2301 -1.1619 1.0072 -175.0842 0.8627 -0.3531 -0.3703 0.4617 0.0953 -0.0331 0.9361 0.2779 0.3041 -0.0509 0.5565 -0.0044 -1.6232 -0.3065 -1.9993 -2.2117 0.4155 -2.8228 4.2265 6.0315 -0.4092 -7.7409 -4.0355 -1.1013 0.0000 0.0000 11.4486 -7.6576 23.1093 -7.2885 -0.0000 0.0000 -0.0000 -0.0000 -0.0000 0.0000 9.8618 -4.8032 -1.3284 -19.3290 -2.4912 6.5914 -0.0000 -0.0000 -20.8459 -7.9503 -20.9675 -0.9088 0.0000 -0.0000 -0.0000 -0.0000 -0.0000 -0.0000 -5.4589 -1.2815 -29.6568 16.7200 0.0000 0.0000 -17.0368 2.8132 4.1192 0.4846 0.0000 0.0000 -7.5169 -4.2898 8.6708 19.0194 0.0000 0.0000 -12.6839 3.3091 1.9986 -4.4683 0.0000 -0.0000
 5.0086 -104.3585 36.2390 -1.1158 1.0531 -175.1277 0.8389 -0.2264 -0.3763 0.4434 0.1085 -0.0297 0.9307 0.2661 0.2889 -0.0503 0.5281 0.0014 -1.6277 -0.3295 -1.9716 -2.1943 0.3929 -2.7923 4.1000 5.9987 -0.3717 -7.5104 -3.8453 -0.8794 0.0000 0.0000 11.1996 -7.6676 22.8921 -7.3907 0.0000 0.0000 0.0000 0.0000 -0.0000 0.0000 9.7880 -4.8127 -1.2428 -19.0476 -2.6037 6.6084 -0.0000 -0.0000 -20.5839 -8.0045 -20.8892 -0.8977 0.0000 -0.0000 -0.0000 -0.0000 0.0000 -0.0000 -5.3714 -1.2088 -29.6133 16.6843 0.0000 0.0000 -17.0213 2.6360 4.0298 0.1598 0.0000 0.0000 -7.2644 -4.2481 8.9945 18.7005 0.0000 0.0000 -12.4987 3.5449 1.7337 -3.1378 0.0000 -0.0000
